<svg width="516px" height="516px" viewBox="0 0 516 516" version="1.1" xmlns="http://www.w3.org/2000/svg" xmlns:xlink="http://www.w3.org/1999/xlink">
    <g id="Page-1" stroke="none" stroke-width="1" fill="none" fill-rule="evenodd">
        <g id="Artboard" transform="translate(-142.000000, -142.000000)" fill="#EF4839">
            <path d="M400,142 C542.489465,142 658,257.510535 658,400 C658,542.489465 542.489465,658 400,658 C257.510535,658 142,542.489465 142,400 C142,257.510535 257.510535,142 400,142 Z M582.205702,351 L217,351 L330.213768,432.877143 L286.748083,565.662526 L399.602851,483.291263 L512.45762,565.662526 L468.991935,432.877143 L582.205702,351 Z M400,235 C375.699471,235 356,254.699471 356,279 C356,303.300529 375.699471,323 400,323 C424.300529,323 444,303.300529 444,279 C444,254.699471 424.300529,235 400,235 Z" id="Combined-Shape"></path>
        </g>
    </g>
</svg>